<svg width="39" height="30" viewBox="0 0 39 30" fill="none" xmlns="http://www.w3.org/2000/svg">
<path d="M5.18363 15.5509C2.32079 12.6881 2.32079 8.04648 5.18364 5.18364C8.04648 2.32079 12.6881 2.32079 15.5509 5.18363L29.0094 18.6422C29.4 19.0327 29.4 19.6659 29.0094 20.0564L20.0564 29.0094C19.6659 29.4 19.0327 29.4 18.6422 29.0094L5.18363 15.5509Z" fill="white" fill-opacity="0.7"/>
<path d="M22.5492 5.3033C25.4782 2.37437 30.2269 2.37437 33.1558 5.3033C36.0848 8.23223 36.0848 12.981 33.1558 15.9099L20.0744 28.9914C19.6838 29.3819 19.0507 29.3819 18.6602 28.9914L9.46777 19.799C9.07725 19.4085 9.07725 18.7753 9.46777 18.3848L22.5492 5.3033Z" fill="white" fill-opacity="0.7"/>
</svg>
